<?xml version="1.0" encoding="iso-8859-1"?>
<!-- Uploaded to: SVG Repo, www.svgrepo.com, Generator: SVG Repo Mixer Tools -->
<svg fill="yellow" height="800px" width="800px" version="1.1" id="Layer_1" xmlns="http://www.w3.org/2000/svg" xmlns:xlink="http://www.w3.org/1999/xlink" 
	 viewBox="0 0 512 512" xml:space="preserve">
<g>
	<g>
		<path d="M469.779,495.967h-28.652c-36.517-40.8-103.41-66.56-177.11-68.308v-51.941c0-0.001,0-0.003,0-0.005v-39.433
			l47.724-47.724c9.014,6.438,19.93,9.6,31.351,9.6c17.828,0,36.881-7.698,51.804-22.62
			c44.572-44.573,48.539-118.644,48.686-121.775c0.106-2.254-0.743-4.449-2.339-6.045c-1.596-1.596-3.786-2.446-6.045-2.339
			c-3.131,0.146-77.202,4.114-121.775,48.686c-12.76,12.76-20.703,28.908-22.366,45.468c-1.426,14.201,1.877,27.301,9.343,37.689
			l-36.384,36.385V166.087c0-11.563,4.503-22.435,12.679-30.611l7.697-7.696c7.612,5.223,16.789,7.975,26.762,7.975
			c1.851,0,3.732-0.094,5.632-0.285c14.497-1.455,28.624-8.399,39.78-19.555c38.535-38.535,44.03-104.493,44.246-107.282
			c0.18-2.333-0.669-4.63-2.325-6.285c-1.655-1.656-3.948-2.504-6.285-2.324c-2.789,0.215-68.746,5.71-107.282,44.246
			c-11.156,11.156-18.101,25.283-19.555,39.779c-1.219,12.138,1.494,23.372,7.686,32.398l-7.693,7.693
			c-11.205,11.204-17.376,26.102-17.376,41.948v10.768c-0.444-0.472-0.882-0.949-1.343-1.41l-16.244-16.244
			c6.192-9.025,8.905-20.259,7.688-32.398c-1.455-14.496-8.399-28.624-19.555-39.779c-38.535-38.536-104.492-44.03-107.282-44.246
			c-2.334-0.182-4.63,0.669-6.285,2.324c-1.656,1.655-2.504,3.952-2.325,6.285c0.216,2.789,5.71,68.747,44.246,107.282
			c11.156,11.156,25.283,18.101,39.78,19.555c1.902,0.191,3.78,0.285,5.632,0.285c9.972,0,19.15-2.753,26.762-7.975l16.248,16.248
			c8.176,8.176,12.679,19.048,12.679,30.611v115.563c0,0.001,0,0.003,0,0.005v23.399l-36.385-36.385
			c7.466-10.389,10.769-23.488,9.343-37.689c-1.662-16.559-9.604-32.707-22.366-45.468
			c-44.573-44.572-118.644-48.539-121.775-48.686c-2.251-0.107-4.45,0.744-6.045,2.339c-1.596,1.596-2.446,3.79-2.339,6.045
			c0.147,3.132,4.114,77.203,48.686,121.775c14.924,14.924,33.974,22.62,51.804,22.62c11.42,0,22.337-3.163,31.351-9.601
			l47.724,47.725v48.623c-73.7,1.748-140.594,27.507-177.11,68.308H42.222c-4.427,0-8.017,3.589-8.017,8.017
			c0,4.427,3.589,8.017,8.017,8.017h427.557c4.427,0,8.017-3.589,8.017-8.017C477.796,499.556,474.206,495.967,469.779,495.967z
			 M307.011,241.134c1.293-12.89,7.597-25.579,17.749-35.732c31.424-31.423,81.388-40.598,101.924-43.116
			c-2.497,20.52-11.628,70.417-43.127,101.915c-18.069,18.069-43.39,22.943-60.251,12.79l75.181-75.18
			c3.131-3.131,3.131-8.206,0-11.337s-8.207-3.131-11.337,0l-75.184,75.184C307.832,258.784,306.089,250.328,307.011,241.134z
			 M281.318,85.65c1.087-10.826,6.392-21.495,14.94-30.042c26.06-26.06,68.27-35.35,87.313-38.332
			c-2.962,19.027-12.219,61.18-38.341,87.303c-8.548,8.547-19.218,13.853-30.043,14.94c-7.105,0.713-13.668-0.482-19.134-3.396
			l59.68-59.68c3.131-3.131,3.131-8.206,0-11.337c-3.131-3.131-8.207-3.131-11.337,0l-59.681,59.677
			C281.8,99.317,280.605,92.753,281.318,85.65z M218.735,147.538l-59.68-59.681c-3.131-3.131-8.207-3.131-11.337,0
			c-3.131,3.131-3.131,8.206,0,11.337l59.68,59.681c-5.469,2.916-12.031,4.111-19.135,3.398
			c-10.826-1.087-21.495-6.392-30.043-14.94c-26.055-26.055-35.347-68.254-38.329-87.301c19.047,2.982,61.245,12.274,87.301,38.329
			c8.548,8.547,13.853,19.217,14.94,30.042C222.844,135.507,221.649,142.071,218.735,147.538z M200.035,308.414l-75.184-75.184
			c-3.131-3.131-8.207-3.131-11.337,0c-3.131,3.131-3.131,8.206,0,11.337l75.18,75.18c-16.863,10.152-42.183,5.279-60.252-12.79
			c-31.419-31.419-40.596-81.371-43.115-101.913c20.542,2.519,70.495,11.696,101.914,43.115
			c10.152,10.153,16.457,22.842,17.749,35.732C205.912,293.085,204.168,301.541,200.035,308.414z M93.565,495.967
			c36.677-32.635,96.892-52.376,162.435-52.376s125.759,19.74,162.435,52.376H93.565z"/>
	</g>
</g>
</svg>